<?xml version="1.0" standalone="no"?>
<!DOCTYPE svg PUBLIC "-//W3C//DTD SVG 20010904//EN"
 "http://www.w3.org/TR/2001/REC-SVG-20010904/DTD/svg10.dtd">
<svg version="1.0" xmlns="http://www.w3.org/2000/svg"
 width="320.000000pt" height="320.000000pt" viewBox="0 0 320.000000 320.000000"
 preserveAspectRatio="xMidYMid meet">
<metadata>
Created by potrace 1.11, written by Peter Selinger 2001-2013
</metadata>
<g transform="translate(0.000000,320.000000) scale(0.100000,-0.100000)"
fill="#000000" stroke="none">
<path d="M284 2747 c-27 -5 -53 -12 -58 -18 -6 -5 -16 -9 -23 -9 -15 0 -16 -1
-77 -52 -46 -39 -97 -116 -114 -173 -9 -29 -12 -267 -12 -901 0 -946 -3 -895
61 -989 30 -44 92 -105 107 -105 5 0 15 -6 21 -13 33 -41 70 -42 1426 -41
l1300 1 56 22 c31 12 67 31 80 42 13 11 29 24 35 27 6 4 27 30 46 57 70 99 67
46 67 1006 1 786 -1 870 -16 910 -39 102 -118 184 -212 221 l-56 21 -1291 1
c-710 1 -1313 -3 -1340 -7z"/>
</g>
</svg>
